<svg width="14" height="17" viewBox="0 0 14 17" fill="none" xmlns="http://www.w3.org/2000/svg">
<path d="M8.97717 5.47569H2.61045V6.23971H8.97717V5.47569ZM11.3968 8.14249V1.33703C11.3968 0.599943 10.7969 0 10.0598 0H1.33703C0.599942 0 0 0.599943 0 1.33703V12.6697C0 13.4067 0.599942 14.0067 1.33703 14.0067H6.37609C7.08643 15.2217 8.40168 16.042 9.90794 16.042C12.1643 16.042 14 14.2065 14 11.95C13.9998 10.2193 12.9182 8.73957 11.3968 8.14249ZM7.79792 0.764015L7.30761 2.13313H4.0892L3.59889 0.764015H7.79792ZM6.10753 10.4418H2.61026V11.2058H5.88673C5.84223 11.4476 5.81568 11.6955 5.81568 11.95C5.81568 12.4019 5.89227 12.8358 6.02827 13.2427H1.33703C1.02111 13.2427 0.764015 12.9856 0.764015 12.6697V1.33703C0.764015 1.02111 1.02111 0.764015 1.33703 0.764015H2.78732L3.55133 2.89714H7.84548L8.60949 0.764015H10.0598C10.3757 0.764015 10.6328 1.02111 10.6328 1.33703V7.92608C10.3971 7.88368 10.1557 7.85808 9.90794 7.85808C9.58724 7.85808 9.27667 7.89896 8.97717 7.96887V7.95874H2.61045V8.72276H7.4012C6.82953 9.1676 6.37952 9.75895 6.10753 10.4418ZM9.90794 15.278C8.07296 15.278 6.57989 13.7851 6.57989 11.95C6.57989 10.1148 8.07277 8.62191 9.90794 8.62191C11.7431 8.62191 13.236 10.1148 13.236 11.95C13.236 13.7851 11.7429 15.278 9.90794 15.278ZM11.4348 11.5679H10.1614V9.81835C10.1614 9.60749 9.99026 9.43635 9.77939 9.43635C9.56852 9.43635 9.39738 9.60749 9.39738 9.81835V11.95C9.39738 12.1608 9.56852 12.332 9.77939 12.332H11.4348C11.6457 12.332 11.8168 12.1608 11.8168 11.95C11.8168 11.7391 11.6457 11.5679 11.4348 11.5679Z" fill="#666A80"/>
</svg>
